HIERARCHY
ROOT Hips
{
	OFFSET -0.001795 -0.223333 0.028219
	CHANNELS 6 Xposition Yposition Zposition Zrotation Yrotation Xrotation 
	JOINT LeftUpLeg
	{
		OFFSET 0.069520 -0.091406 -0.006815
		CHANNELS 3 Zrotation Yrotation Xrotation
		JOINT LeftLeg
		{
			OFFSET 0.034277 -0.375199 -0.004496
			CHANNELS 3 Zrotation Yrotation Xrotation
			JOINT LeftFoot
			{
				OFFSET -0.013596 -0.397961 -0.043693
				CHANNELS 3 Zrotation Yrotation Xrotation
				JOINT LeftToe
				{
					OFFSET 0.026358 -0.055791 0.119288
					CHANNELS 3 Zrotation Yrotation Xrotation
					End Site
					{
						OFFSET 0.000000 0.000000 0.000000
					}
				}
			}
		}
	}
	JOINT RightUpLeg
	{
		OFFSET -0.067670 -0.090522 -0.004320
		CHANNELS 3 Zrotation Yrotation Xrotation
		JOINT RightLeg
		{
			OFFSET -0.038290 -0.382569 -0.008850
			CHANNELS 3 Zrotation Yrotation Xrotation
			JOINT RightFoot
			{
				OFFSET 0.015774 -0.398415 -0.042312
				CHANNELS 3 Zrotation Yrotation Xrotation
				JOINT RightToe
				{
					OFFSET -0.025372 -0.048144 0.123348
					CHANNELS 3 Zrotation Yrotation Xrotation
					End Site
					{
						OFFSET 0.000000 0.000000 0.000000
					}
				}
			}
		}
	}
	JOINT Spine
	{
		OFFSET -0.002533 0.108963 -0.026696
		CHANNELS 3 Zrotation Yrotation Xrotation
		JOINT Spine1
		{
			OFFSET 0.005487 0.135180 0.001092
			CHANNELS 3 Zrotation Yrotation Xrotation
			JOINT Spine2
			{
				OFFSET 0.001457 0.052922 0.025425
				CHANNELS 3 Zrotation Yrotation Xrotation
				JOINT Neck
				{
					OFFSET -0.002778 0.213870 -0.042857
					CHANNELS 3 Zrotation Yrotation Xrotation
					JOINT Head
					{
						OFFSET 0.005152 0.064970 0.051349
						CHANNELS 3 Zrotation Yrotation Xrotation
						End Site
						{
							OFFSET 0.000000 0.000000 0.000000
						}
					}
				}
				JOINT LeftShoulder
				{
					OFFSET 0.078845 0.121749 -0.034090
					CHANNELS 3 Zrotation Yrotation Xrotation
					JOINT LeftArm
					{
						OFFSET 0.090977 0.030469 -0.008868
						CHANNELS 3 Zrotation Yrotation Xrotation
						JOINT LeftForeArm
						{
							OFFSET 0.259612 -0.012772 -0.027456
							CHANNELS 3 Zrotation Yrotation Xrotation
							JOINT LeftHand
							{
								OFFSET 0.249234 0.008986 -0.001171
								CHANNELS 3 Zrotation Yrotation Xrotation
								End Site
								{
									OFFSET 0.000000 0.000000 0.000000
								}
							}
						}
					}
				}
				JOINT RightShoulder
				{
					OFFSET -0.081759 0.118833 -0.038615
					CHANNELS 3 Zrotation Yrotation Xrotation
					JOINT RightArm
					{
						OFFSET -0.096012 0.032551 -0.009143
						CHANNELS 3 Zrotation Yrotation Xrotation
						JOINT RightForeArm
						{
							OFFSET -0.253742 -0.013329 -0.021401
							CHANNELS 3 Zrotation Yrotation Xrotation
							JOINT RightHand
							{
								OFFSET -0.255298 0.007772 -0.005559
								CHANNELS 3 Zrotation Yrotation Xrotation
								End Site
								{
									OFFSET 0.000000 0.000000 0.000000
								}
							}
						}
					}
				}
			}
		}
	}
}
MOTION
Frames: 6
Frame Time: 0.050000
-0.025167 0.942005 -0.009191 -2.907532 -9.889364 2.769859 7.733261 0.185325 3.934057 -1.302109 0.257847 -4.067542 5.970088 13.194180 7.421792 0.000000 0.000000 0.000000 -0.572422 -0.356907 4.615858 7.735596 -0.254682 -9.494465 -4.281621 -13.692031 11.387626 0.000000 0.000000 0.000000 11.805797 -0.192299 0.792395 -7.448595 2.313787 -22.507164 0.640183 10.545725 31.089983 9.587147 -2.080110 -33.633340 0.000000 0.000000 0.000000 -35.656149 -9.978152 2.991463 -32.287346 -2.851111 -4.263432 2.620257 -26.983759 0.446549 0.000000 0.000000 0.000000 39.822870 -4.587907 -4.393535 46.001050 3.833397 -6.066899 -6.365851 30.860887 0.305323 0.000000 0.000000 0.000000 
-0.028143 0.940949 -0.007822 -2.740480 -9.901893 2.509484 7.629508 0.142136 2.575443 -1.312123 0.183052 -0.686680 6.596274 14.276878 5.732261 0.000000 0.000000 0.000000 -0.458023 -0.409576 5.165882 7.893264 -0.250842 -9.546344 -4.282612 -13.466075 10.461519 0.000000 0.000000 0.000000 11.770630 -0.310248 1.664888 -7.605570 2.342655 -22.979368 0.823184 10.474584 31.220607 9.207854 -1.932245 -33.461087 0.000000 0.000000 0.000000 -36.040736 -10.120158 3.131256 -31.579177 -3.210789 -4.111735 3.367750 -27.597399 0.276283 0.000000 0.000000 0.000000 40.412089 -4.114583 -4.097672 45.176113 4.396804 -5.812300 -5.880386 30.567563 0.393140 0.000000 0.000000 0.000000 
-0.030920 0.939858 -0.005864 -2.829013 -9.718109 2.395023 8.126410 0.057348 -0.293190 -1.956315 0.222008 5.059290 6.959022 14.907516 4.031216 0.000000 0.000000 0.000000 -0.317856 -0.463786 5.667745 7.912814 -0.235112 -10.027680 -3.830458 -12.537530 10.103067 0.000000 0.000000 0.000000 11.885807 -0.441903 2.579869 -7.307893 2.266342 -23.086904 0.800780 10.649357 31.080658 8.949567 -1.787331 -33.169848 0.000000 0.000000 0.000000 -36.613754 -10.432985 3.157520 -30.602735 -3.344935 -3.897862 3.294034 -28.043360 0.280181 0.000000 0.000000 0.000000 41.048104 -3.347717 -3.323371 44.284022 5.080677 -5.567050 -6.652387 30.453845 0.200261 0.000000 0.000000 0.000000 
-0.033317 0.939563 -0.003088 -2.929965 -10.005775 2.742307 9.200587 0.036886 -4.003741 -3.727831 0.688481 11.564946 8.109546 17.051180 3.779239 0.000000 0.000000 0.000000 -0.100920 -0.439103 5.122343 8.169782 -0.273887 -8.941022 -3.910593 -12.439498 9.110750 0.000000 0.000000 0.000000 12.083716 -0.554418 3.257031 -7.564547 2.317233 -23.318650 1.081756 10.555133 30.512588 8.159577 -1.495947 -32.550441 0.000000 0.000000 0.000000 -37.307658 -9.730483 2.709566 -29.597584 -2.408153 -3.958740 3.287909 -29.838663 0.298431 0.000000 0.000000 0.000000 40.443795 -2.875557 -3.057849 43.926015 5.320268 -5.356398 -5.418826 29.869800 0.430221 0.000000 0.000000 0.000000 
-0.035197 0.939705 0.001863 -2.639668 -10.747472 2.420228 9.615706 0.086603 -6.705464 -4.891524 1.153880 15.007823 8.747437 18.220206 3.535762 0.000000 0.000000 0.000000 -0.487798 -0.456734 5.939223 8.273192 -0.267280 -8.615193 -2.944684 -10.535163 8.701484 0.000000 0.000000 0.000000 11.921980 -0.662512 4.201291 -7.366575 2.241668 -23.989320 1.746395 12.201820 30.874551 7.653001 -1.039705 -32.529053 0.000000 0.000000 0.000000 -38.367491 -9.990761 2.149363 -28.655649 -1.408391 -3.853324 2.679422 -31.130869 0.429250 0.000000 0.000000 0.000000 41.497022 -3.402374 -2.865771 42.022650 6.594365 -5.055568 -4.491349 29.748560 0.688154 0.000000 0.000000 0.000000 
-0.036654 0.940027 0.009896 -2.266149 -11.688300 1.804898 9.462310 0.123209 -8.886634 -5.375706 1.326648 14.966826 9.934668 20.296953 4.534871 0.000000 0.000000 0.000000 -0.923463 -0.477725 7.108113 8.367669 -0.247977 -8.453287 -2.390865 -9.481815 8.588854 0.000000 0.000000 0.000000 11.406380 -0.776873 5.422243 -6.574132 2.025057 -24.604390 1.468923 12.810799 30.922635 7.939615 -1.109359 -33.090902 0.000000 0.000000 0.000000 -37.928758 -8.170831 0.751713 -29.629594 -0.246291 -4.240339 1.608208 -33.338922 0.787503 0.000000 0.000000 0.000000 40.259314 -3.058868 -2.441719 43.181518 6.641341 -5.137346 -4.436103 29.983887 0.733312 0.000000 0.000000 0.000000 
